<svg id="Capa_1" data-name="Capa 1" xmlns="http://www.w3.org/2000/svg" viewBox="0 0 329.63 451.7"><defs><style>.cls-1{fill:#fdfdf5;}.cls-2{fill:#080b17;}.cls-3,.cls-4{fill:#be1622;}.cls-4,.cls-5{stroke:#000;stroke-miterlimit:10;}.cls-4{stroke-width:5px;}.cls-5{fill:#feeb15;}</style></defs><rect class="cls-1" x="21.36" y="24.71" width="286.9" height="402.3"/><path class="cls-2" d="M184.46,522.12a12.09,12.09,0,0,1-3.77-1.57c-2.92-1.83-5.36-5.16-7.36-9.82a60,60,0,0,1-2.58-7.4c-.74-2.62-1.4-5.31-2-8s-1.07-5.37-1.47-8-.71-4.89-.93-6.94a53.51,53.51,0,0,1-.33-7.27,29.62,29.62,0,0,1,.89-6.83,17.24,17.24,0,0,1,2.84-6.12,13.38,13.38,0,0,1,5.29-4.21,12,12,0,0,1,5.74-1.15h.11a11.4,11.4,0,0,1,4.84,1.5,13.08,13.08,0,0,1,3.7,3.27,21.42,21.42,0,0,1,2.37,3.77,47.44,47.44,0,0,1,3,7.93c.72,2.54,1.41,4.86,2.07,6.9q.84,2.6,1.65,5.2l-4.61,1.24a17.53,17.53,0,0,0-2.12.7c-.67.26-1.45.6-2.34,1s-1.78.83-2.66,1.28l-2.8,1.42,0,.06c.24,1.14.48,2.24.73,3.29l2.23-.6a22.83,22.83,0,0,0,4.84-1.92l2.29-1.25c1.45-.82,2.91-1.65,4.36-2.5q.48,2.79.92,5.58c.36,2.27.76,4.36,1.21,6.22a30.59,30.59,0,0,1,.86,7.32,18.8,18.8,0,0,1-.64,5.09,18.14,18.14,0,0,1-2,4.8,15.89,15.89,0,0,1-3.35,4,13.42,13.42,0,0,1-4.72,2.62A12,12,0,0,1,184.46,522.12Z" transform="translate(-132.83 -195.09)"/><path class="cls-3" d="M187.58,496.33a27,27,0,0,0,3.11-1,24.66,24.66,0,0,0,2.54-1.19c.82-.43,1.59-.84,2.31-1.24.38,2.43.81,4.66,1.29,6.67a25.16,25.16,0,0,1,.7,6.1,13.23,13.23,0,0,1-.44,3.57,13.44,13.44,0,0,1-1.41,3.36,11.41,11.41,0,0,1-2.34,2.81,9.62,9.62,0,0,1-3.34,1.85,8.39,8.39,0,0,1-7.3-.82c-2.25-1.38-4.18-4-5.86-7.91a52.92,52.92,0,0,1-2.38-6.79c-.72-2.51-1.36-5.06-1.92-7.67s-1-5.14-1.42-7.63-.69-4.72-.9-6.7a48.49,48.49,0,0,1-.31-6.59,25.24,25.24,0,0,1,.73-5.69,12.43,12.43,0,0,1,2.05-4.42,8.92,8.92,0,0,1,3.69-2.87,8.3,8.3,0,0,1,4.14-.81,8.1,8.1,0,0,1,3.42,1.08,9.65,9.65,0,0,1,2.63,2.36,17.25,17.25,0,0,1,1.89,3A43.52,43.52,0,0,1,191.1,473c.74,2.64,1.44,5,2.13,7.14a22.83,22.83,0,0,0-2.53.86c-.74.3-1.58.67-2.51,1.1s-1.87.9-2.81,1.39q-.65-3.21-1.45-6a40.58,40.58,0,0,0-1.66-4.77,12.49,12.49,0,0,0-1.73-3c-.58-.69-1.14-.93-1.69-.7s-1,1.1-1.13,2.5a27.68,27.68,0,0,0,.14,5.11c.21,2,.53,4.23,1,6.66s.89,4.83,1.39,7.21c.6,2.8,1.18,5.34,1.77,7.61a57.91,57.91,0,0,0,1.74,5.78,12.48,12.48,0,0,0,1.84,3.53,1.79,1.79,0,0,0,2,.8,1.94,1.94,0,0,0,1.21-1.61,11.21,11.21,0,0,0,.17-3,24.79,24.79,0,0,0-.54-3.65C188.14,498.59,187.86,497.41,187.58,496.33Z" transform="translate(-132.83 -195.09)"/><path class="cls-2" d="M209.29,513.22a10.52,10.52,0,0,1-3.85-1.6c-2.76-1.84-5.1-5.16-7.28-10.07a78.79,78.79,0,0,1-2.84-7.74c-.85-2.73-1.64-5.55-2.34-8.39s-1.3-5.58-1.8-8.23-.88-5.15-1.07-7.26a74.66,74.66,0,0,1-.39-7.8,31.85,31.85,0,0,1,.83-7.24,18.51,18.51,0,0,1,2.81-6.36,14.09,14.09,0,0,1,5.13-4.42,11.24,11.24,0,0,1,5.57-1.33l.54,0a11.51,11.51,0,0,1,5.63,2.27,21,21,0,0,1,4.62,4.86,49.34,49.34,0,0,1,3.88,6.61,58.21,58.21,0,0,1,2.82,6.82c.91,2.63,1.75,5.48,2.48,8.46s1.34,6.08,1.8,9.16a72,72,0,0,1,.77,9c.06,6.1-.83,10.87-2.62,14.53a15.3,15.3,0,0,1-8.46,8A11.46,11.46,0,0,1,209.29,513.22ZM206,468.77c.52,2.85,1.26,6.16,2.19,9.93s1.79,7,2.59,9.46a95.35,95.35,0,0,0-1.94-9.74A99.18,99.18,0,0,0,206,468.77Z" transform="translate(-132.83 -195.09)"/><path class="cls-3" d="M214.71,507.87a7.57,7.57,0,0,1-7.21-.56c-2.12-1.39-4.05-4.16-5.89-8.25A71.74,71.74,0,0,1,199,491.9c-.84-2.64-1.59-5.32-2.27-8s-1.26-5.35-1.74-7.9-.82-4.78-1-6.71a65,65,0,0,1-.38-7.22,25.7,25.7,0,0,1,.68-6,13.2,13.2,0,0,1,2-4.58,9.68,9.68,0,0,1,3.64-3.06,7.6,7.6,0,0,1,4.27-.89,8.24,8.24,0,0,1,4,1.67,17.44,17.44,0,0,1,3.73,4,44.57,44.57,0,0,1,3.49,6,51.16,51.16,0,0,1,2.58,6.28q1.29,3.75,2.33,8c.7,2.84,1.26,5.74,1.69,8.67a68,68,0,0,1,.7,8.29c0,5-.64,8.92-2,11.7A10.89,10.89,0,0,1,214.71,507.87Zm-10.29-27.56a96.56,96.56,0,0,0,4.26,14.21c1.31,3,2.7,4.23,4.2,3.63s2.17-2.65,2.1-6.21a72.79,72.79,0,0,0-2.48-15.17,74.43,74.43,0,0,0-5.22-15.31c-1.69-3.26-3.21-4.55-4.52-3.92s-1.79,3-1.4,7A122.24,122.24,0,0,0,204.42,480.31Z" transform="translate(-132.83 -195.09)"/><path class="cls-2" d="M226.24,502.66c-.2-2.07-.55-4.72-1.09-7.86s-1.23-6.67-2-10.36-1.73-7.51-2.75-11.42-2.09-7.7-3.15-11.18-2.12-6.78-3.12-9.73-1.87-5.31-2.57-7.15c-.62-1.65-1.26-3.29-1.9-4.92l4.2-1.82a28.78,28.78,0,0,0,3-1.51c1-.61,1.92-1.15,2.69-1.65s1.75-1.15,2.52-1.7l3.22-2.38c.66,1.33,1.31,2.67,2,4,.83,1.74,2,3.88,3.3,6.36s2.82,5.19,4.27,7.81l.69,1.25c-.06-.63-.11-1.26-.18-1.9-.22-2.35-.48-4.7-.78-7s-.6-4.48-.92-6.52-.61-3.7-.91-5.12-.65-3.11-1-4.66l3.53-1.51c1.05-.46,2.05-1,3-1.45s1.83-1,2.61-1.53,1.67-1.09,2.45-1.65l3.77-2.75q.84,2.67,1.65,5.35c.61,2,1.45,4.76,2.46,8.09s2.11,7,3.28,11.09,2.37,8.31,3.57,12.71,2.34,8.76,3.39,12.88,2,8,2.9,11.42,1.59,6.15,2.21,8.19q.86,2.83,1.68,5.7l-4.49,1.85-2.9,1.18c-.78.31-1.64.7-2.59,1.18s-1.95,1-2.92,1.59q-2.22,1.31-4.44,2.58-.33-3.07-.69-6.13c-.12-1-.29-2.29-.5-3.79l-1.2.44a16.71,16.71,0,0,0-1.55.63l-1.86.86c-.58.26-1.21.58-1.88.95l-1,.53c.21.74.41,1.42.59,2,.56,1.9,1.11,3.82,1.65,5.74-1.57.5-3.15,1-4.73,1.48-1,.32-2,.67-3,1.05s-1.91.75-2.71,1.09l-2.77,1.32q-2.21,1.06-4.43,2.1Q226.52,505.55,226.24,502.66Z" transform="translate(-132.83 -195.09)"/><path class="cls-3" d="M241.89,488.35c-.54-1.6-1.3-3.6-2.29-6s-2-4.78-3.14-7.21-2.2-4.72-3.26-6.86-1.92-3.77-2.54-4.91c-.4-.71-.66-1-.79-.93s-.13.58,0,1.43c.33,1.61.91,3.88,1.71,6.83s1.68,6.11,2.61,9.46,1.83,6.65,2.7,9.85,1.6,5.83,2.19,7.86c-1.11.35-2.19.73-3.25,1.16s-2,.82-2.86,1.17l-2.86,1.4c-.21-2.22-.59-5-1.16-8.27s-1.26-6.81-2.1-10.56-1.76-7.6-2.8-11.56-2.12-7.73-3.21-11.32-2.17-6.87-3.19-9.84-1.91-5.39-2.63-7.27a32.07,32.07,0,0,0,3.37-1.68c1.05-.6,2-1.17,2.81-1.69s1.85-1.19,2.69-1.8c.88,1.84,2,4,3.42,6.64s2.82,5.23,4.29,7.91,2.87,5.23,4.2,7.63,2.43,4.3,3.31,5.66c.65,1.14,1,1,1-.52,0-1.09,0-2.53-.08-4.34s-.19-3.8-.34-6-.35-4.48-.59-6.9-.5-4.8-.8-7.15-.62-4.57-.95-6.65-.65-3.87-1-5.41a34.94,34.94,0,0,0,3.25-1.56c1-.55,2-1.08,2.77-1.59s1.8-1.15,2.64-1.75c.63,2.08,1.46,4.79,2.47,8.14s2.1,7.05,3.25,11.09,2.34,8.28,3.54,12.72,2.31,8.74,3.36,12.88,2,8,2.89,11.49,1.63,6.37,2.27,8.53l-2.9,1.2c-.85.35-1.8.79-2.84,1.32s-2.09,1.11-3.14,1.74c-.17-1.34-.4-3.07-.71-5.19s-.67-4.39-1.09-6.82-.88-4.94-1.39-7.5-1-5-1.53-7.27-1-4.32-1.45-6.09-.83-3.09-1.12-4c-.41-1.08-.69-1.51-.83-1.29a3.13,3.13,0,0,0-.19,1.54c0,1.5.09,3.55.24,6.15s.33,5.33.55,8.19.43,5.67.62,8.43.39,5,.61,6.7c-.62.23-1.23.48-1.83.77l-1.85.87C243.33,487.58,242.62,487.94,241.89,488.35Z" transform="translate(-132.83 -195.09)"/><path class="cls-2" d="M262.75,486c-.32-2.26-.81-5.14-1.49-8.57s-1.48-7.17-2.42-11.13-2-8.14-3.14-12.17-2.31-8-3.52-11.79-2.35-7.11-3.44-10.09-2-5.35-2.78-7.08-1.55-3.55-2.33-5.3l4.3-2.19a31,31,0,0,0,2.83-1.64l2.67-1.76c.84-.56,1.63-1.12,2.35-1.67q2-1.53,4-3.09.8,3,1.56,6c.47,1.86,1.19,4.32,2.12,7.34s2,6.55,3.18,10.53,2.33,7.92,3.55,12.15,2.4,8.44,3.5,12.45,2.12,7.72,3.09,11.16,1.76,6.22,2.44,8.39c.6,1.92,1.18,3.86,1.76,5.8-1.49.66-3,1.32-4.46,2l-2.81,1.23c-1.69.73-3.68,1.74-5.95,3-1.4.77-2.8,1.54-4.2,2.29Q263.17,488.92,262.75,486Z" transform="translate(-132.83 -195.09)"/><path class="cls-3" d="M257.68,417.24q.76,3,2.21,7.73t3.16,10.54q1.71,5.82,3.54,12.2t3.47,12.46q1.65,6.07,3.1,11.3c1,3.49,1.78,6.36,2.48,8.62l-2.82,1.26q-2.67,1.18-6.25,3.2c-.35-2.39-.86-5.35-1.55-8.85s-1.53-7.27-2.49-11.29-2-8.13-3.21-12.32-2.38-8.15-3.59-11.92-2.39-7.18-3.52-10.25-2.1-5.52-2.91-7.36a31.46,31.46,0,0,0,3.14-1.8c1-.65,1.92-1.23,2.69-1.74S256.89,417.84,257.68,417.24Z" transform="translate(-132.83 -195.09)"/><path class="cls-2" d="M276.37,481.25c-.47-2.91-1.09-6.28-1.86-10s-1.65-7.55-2.65-11.53-2.08-8-3.24-12.06-2.3-7.78-3.5-11.47-2.32-6.89-3.42-9.9-2.07-5.4-2.89-7.3-1.57-3.6-2.37-5.39c1.42-.75,2.83-1.51,4.25-2.28,1-.52,1.93-1.09,2.83-1.68a25.54,25.54,0,0,0,2.23-1.59l.1-.08.1-.07a17.52,17.52,0,0,0,1.9-1.51l2-1.91-1.65-3.52,4.49-2.3a31.84,31.84,0,0,0,2.81-1.64,22.45,22.45,0,0,0,2.16-1.61l.1-.08.1-.08a19.07,19.07,0,0,0,2-1.66c1.3-1.27,2.6-2.56,3.89-3.85q1,3.22,1.93,6.48c.67,2.29,1.57,5.13,2.64,8.47s2.31,7.13,3.58,11.14,2.59,8.19,3.93,12.5,2.63,8.62,3.81,12.61,2.3,7.84,3.32,11.39,1.86,6.41,2.56,8.7q.92,3,1.79,6L303,469.11l-2.36,1.15c-.66.32-1.41.74-2.26,1.26s-1.89,1.21-3,2L293.2,475l1,3.4-4.63,1.93c-1,.41-2,.86-2.93,1.33s-1.75.92-2.47,1.37l-2.75,1.67c-1.39.84-2.77,1.67-4.16,2.49Q276.86,484.21,276.37,481.25Z" transform="translate(-132.83 -195.09)"/><path class="cls-3" d="M262.12,416.27c1.08-.57,2.1-1.16,3.08-1.79s1.81-1.21,2.52-1.77a20.92,20.92,0,0,0,2.3-1.81c.87,1.66,1.93,3.63,3.19,5.94s2.53,4.62,3.85,6.93,2.59,4.49,3.81,6.54,2.25,3.68,3.08,4.87c.49.74.86,1,1.13.85s.27-.85,0-2c-.38-1.41-1-3.45-1.82-6.1s-1.8-5.47-2.89-8.46-2.18-5.89-3.31-8.73-2.1-5.14-2.93-6.93a32.74,32.74,0,0,0,3.12-1.78,25.13,25.13,0,0,0,2.52-1.85,22.54,22.54,0,0,0,2.33-2c.69,2.39,1.6,5.3,2.7,8.75s2.3,7.17,3.57,11.19,2.57,8.21,3.91,12.56,2.59,8.56,3.78,12.63,2.29,7.88,3.31,11.45,1.87,6.53,2.59,8.89l-2.37,1.18c-.74.37-1.59.85-2.54,1.44s-2,1.3-3.15,2.12q-1-2.64-2.58-6.26c-1.06-2.41-2.19-4.8-3.37-7.16s-2.35-4.53-3.48-6.55a42.54,42.54,0,0,0-2.84-4.52c-.66-.85-1.11-1.15-1.36-.93s-.22,1,.1,2.26.84,3.23,1.58,5.83,1.53,5.38,2.38,8.33,1.67,5.83,2.46,8.66,1.46,5.12,2,6.86c-1.09.46-2.14.95-3.16,1.47s-1.94,1-2.75,1.55l-2.73,1.68q-.74-4.53-1.92-10.23c-.79-3.79-1.7-7.71-2.72-11.73s-2.13-8.08-3.3-12.16-2.37-7.95-3.57-11.61-2.38-7-3.51-10.05S263,418.27,262.12,416.27Z" transform="translate(-132.83 -195.09)"/><path class="cls-2" d="M312.55,464.35A9.27,9.27,0,0,1,308.4,463c-3-1.8-5.68-5.32-8.27-10.67a78.6,78.6,0,0,1-3.31-8c-1.08-3-2.13-6.19-3.13-9.47s-1.95-6.55-2.84-9.86-1.68-6.46-2.32-9.34l0-.14c-.6-2.93-1.08-5.82-1.44-8.61a47.81,47.81,0,0,1-.39-8.73,26.82,26.82,0,0,1,1.68-8.25A15.14,15.14,0,0,1,293,383.4a10.89,10.89,0,0,1,5.46-2.56l.37,0a8.6,8.6,0,0,1,4.77,1,14.88,14.88,0,0,1,4.11,3.41,35.08,35.08,0,0,1,3.07,4.15l.05.1a41.08,41.08,0,0,1,2.4,4.65q1,2.24,1.92,4.5c.63,1.54,1.24,3.11,1.81,4.67.38,1.06.76,2.05,1.13,3l.38-.38q.72,2.34,1.44,4.71c.32.77.64,1.54.95,2.31l-.22.14c1,3.34,2.05,6.77,3.13,10.23a90.56,90.56,0,0,1,2.95,12.62l0,.15a50.8,50.8,0,0,1,.5,6.85,32.53,32.53,0,0,1-.82,7.57,23.37,23.37,0,0,1-2.85,7.07,15.81,15.81,0,0,1-5.12,5.17A9.82,9.82,0,0,1,312.55,464.35Z" transform="translate(-132.83 -195.09)"/><path class="cls-3" d="M323,437.44a43.86,43.86,0,0,1,.41,5.71,23.3,23.3,0,0,1-.59,5.52,16.1,16.1,0,0,1-2,4.9,11.32,11.32,0,0,1-3.66,3.69,6.45,6.45,0,0,1-7.19.29c-2.32-1.36-4.53-4.29-6.7-8.73a69,69,0,0,1-3.05-7.29q-1.58-4.32-3-9.07t-2.77-9.54q-1.31-4.8-2.24-8.94c-.56-2.73-1-5.39-1.34-8a39,39,0,0,1-.33-7.18,19.07,19.07,0,0,1,1.22-6,10.26,10.26,0,0,1,3.27-4.44,8,8,0,0,1,4-1.87,5.78,5.78,0,0,1,3.47.69,10.71,10.71,0,0,1,3,2.52,28.79,28.79,0,0,1,2.59,3.54,33.62,33.62,0,0,1,2,3.94q.94,2.17,1.85,4.38t1.7,4.43c.54,1.48,1.06,2.85,1.59,4.09l-2.44,1.57a23.73,23.73,0,0,0-2.4,1.78c-.86.71-1.72,1.46-2.58,2.24q-1.17-3.83-2.4-7.16a53.34,53.34,0,0,0-2.43-5.69,15.82,15.82,0,0,0-2.26-3.5c-.71-.76-1.32-.94-1.82-.56s-.81,1.55-.69,3.31a45.1,45.1,0,0,0,1,6.38q.82,3.76,2.09,8.2t2.59,8.71q1.61,5.13,3,9.25a69.52,69.52,0,0,0,2.66,6.83,14.75,14.75,0,0,0,2.4,3.92c.76.79,1.5.95,2.21.48a2.68,2.68,0,0,0,1-1.68,10.67,10.67,0,0,0,.27-2.77,21,21,0,0,0-.37-3.31c-.22-1.15-.48-2.26-.78-3.32-.59-2.05-1.3-3.11-2.12-3.19s-1.88.67-3.22,2.21c-.26-1.08-.57-2.21-.92-3.38q-.43-1.47-1-3.36c-.41-1.25-.87-2.49-1.36-3.73a51.43,51.43,0,0,0,5.82-4,60.63,60.63,0,0,0,5.47-4.79q1.63,5.53,3.4,11.24A83.5,83.5,0,0,1,323,437.44Z" transform="translate(-132.83 -195.09)"/><path class="cls-2" d="M342.48,444.91a9.22,9.22,0,0,1-1.47-.18c-2.82-.58-5.33-2.6-7.48-6a23.57,23.57,0,0,1-2.52-5.18c-.55-1.57-1.1-3.24-1.64-5s-1-3.37-1.49-5a29.74,29.74,0,0,0-1.18-3.38c-1-2.18-1.92-4.36-2.9-6.52l4.79-2.54.76-.42a21.25,21.25,0,0,1-4.33-3.4,29,29,0,0,1-4.2-5.48,46.76,46.76,0,0,1-3.66-8c-2.76-7.56-3.89-14.21-3.26-19.93.66-6,2.84-10.69,6.59-14.1a11,11,0,0,1,5.86-3.08l.16,0a8.68,8.68,0,0,1,5.43,1.14,15.38,15.38,0,0,1,4.71,4.43,36.19,36.19,0,0,1,3.4,5.91c1.41,3.12,2.58,6.08,3.5,8.81.77,2.3,1.64,4.64,2.58,6.95.83,2,1.64,4.05,2.45,6.09l-3.65,2.52a16.73,16.73,0,0,1,3.15,2.2,21.49,21.49,0,0,1,4.31,5.5,42.54,42.54,0,0,1,3.44,8.21,41.08,41.08,0,0,1,1.55,20c-1.24,6.44-4,11.19-8.11,14.1A11.09,11.09,0,0,1,342.48,444.91Z" transform="translate(-132.83 -195.09)"/><path class="cls-3" d="M329.89,416.81c1.09-.58,2.11-1.17,3-1.79s1.73-1.2,2.42-1.72,1.47-1.18,2.09-1.75q.72,3.27,1.51,6.09a28.44,28.44,0,0,0,1.72,4.77,7.75,7.75,0,0,0,1.92,2.73,1.58,1.58,0,0,0,2.1-.05,4,4,0,0,0,1.21-3.21,15.68,15.68,0,0,0-.79-5.28,12.9,12.9,0,0,0-3.7-6.18,19.57,19.57,0,0,0-6.56-3.51,25.07,25.07,0,0,1-4-1.75,17.55,17.55,0,0,1-3.78-2.88,23.68,23.68,0,0,1-3.43-4.45,38,38,0,0,1-3.09-6.68c-2.31-6.29-3.27-11.53-2.79-15.85a15.55,15.55,0,0,1,5-10.27,8.19,8.19,0,0,1,4.35-2.29,6.05,6.05,0,0,1,3.87.78,11,11,0,0,1,3.31,3.17A28.94,28.94,0,0,1,337,371.5a83.17,83.17,0,0,1,3.2,8.09q1.25,3.74,2.76,7.5L341,388.46c-.61.43-1.35,1-2.23,1.68a33.34,33.34,0,0,0-2.82,2.53q-1.21-4.34-2.42-7.79a45.27,45.27,0,0,0-2.33-5.66,11.1,11.1,0,0,0-2.14-3.11,1.31,1.31,0,0,0-1.92-.12c-.7.6-1,1.79-.94,3.56a22,22,0,0,0,1.57,6.62,32.29,32.29,0,0,0,1.57,3.61,12.3,12.3,0,0,0,2,2.87,13.06,13.06,0,0,0,2.78,2.19,12.45,12.45,0,0,0,3.88,1.43,45,45,0,0,1,4.52,1.52,12.78,12.78,0,0,1,3.79,2.39,16.33,16.33,0,0,1,3.27,4.22,35.57,35.57,0,0,1,2.81,6.83,31.88,31.88,0,0,1,1.3,15.46c-.88,4.63-2.87,8.06-5.91,10.25a7.85,7.85,0,0,1-6.17,1.69c-2-.39-3.78-1.83-5.36-4.29a16.76,16.76,0,0,1-1.85-3.77c-.53-1.48-1-3-1.54-4.64s-1-3.23-1.45-4.83A33.62,33.62,0,0,0,329.89,416.81Z" transform="translate(-132.83 -195.09)"/><path class="cls-2" d="M366.41,426.11a8.35,8.35,0,0,1-4.07-1.13c-3-1.7-6-5.4-9-11.23-1.44-2.79-2.86-5.93-4.27-9.37s-2.7-6.84-4-10.36-2.4-7-3.43-10.34-1.93-6.54-2.55-9.25c-.86-3.55-1.55-7-2.05-10.13a58,58,0,0,1-.78-9.67,30.82,30.82,0,0,1,1.33-8.9,16.8,16.8,0,0,1,4-6.82,9.2,9.2,0,0,1,5.15-2.83l.54-.06a9.78,9.78,0,0,1,6,1.83,25.43,25.43,0,0,1,5.64,5.38,67.58,67.58,0,0,1,5.26,7.76,82,82,0,0,1,4.25,8.22c1.46,3.19,2.89,6.67,4.24,10.35s2.58,7.52,3.65,11.37a114.11,114.11,0,0,1,2.57,11.4c1.28,7.79,1.32,14.07.26,19.18-1.15,5.51-3.47,9.65-6.82,12.28A9.68,9.68,0,0,1,366.41,426.11Zm-12-56.62c1.12,3.58,2.54,7.71,4.22,12.39s3.17,8.61,4.45,11.65c-.89-3.38-2.17-7.46-3.87-12.16S355.85,372.67,354.38,369.49Z" transform="translate(-132.83 -195.09)"/><path class="cls-3" d="M370.75,418c-2.45,2-4.85,2.27-7.19,1s-4.75-4.38-7.34-9.24q-2-3.79-4-8.64t-3.82-9.92q-1.81-5.07-3.31-9.89c-1-3.22-1.8-6.06-2.38-8.54q-1.22-5-1.91-9.36a45.79,45.79,0,0,1-.64-7.93,21.71,21.71,0,0,1,.95-6.4,11.7,11.7,0,0,1,2.88-4.74,6.18,6.18,0,0,1,4-2,7,7,0,0,1,4.3,1.36,20.7,20.7,0,0,1,4.55,4.42,63.71,63.71,0,0,1,4.75,7.08,78.82,78.82,0,0,1,3.88,7.58q2.07,4.57,4,9.83t3.43,10.78a107.49,107.49,0,0,1,2.35,10.49c1,6.4,1.12,11.57.32,15.44S373.16,416,370.75,418Zm-15.47-33.16c2.86,8,5.13,13.84,7,17.41s3.46,4.82,4.82,3.7,1.62-3.91.85-8.47a115.34,115.34,0,0,0-5.48-19c-3.15-8.63-6-14.83-8.36-18.71s-4.14-5.24-5.28-4.15-1.11,4.25.14,9.38S352.38,376.65,355.28,384.79Z" transform="translate(-132.83 -195.09)"/><path class="cls-2" d="M390.78,406.34a8.21,8.21,0,0,1-4.11-1.06c-3.11-1.67-6.14-5.43-9.39-11.4-1.53-2.85-3-6.08-4.57-9.61s-2.93-7-4.3-10.67-2.64-7.2-3.78-10.66-2.16-6.75-2.88-9.56c-1-3.66-1.79-7.21-2.41-10.48a62.63,62.63,0,0,1-1.12-10.06,33,33,0,0,1,1-9.29,17.38,17.38,0,0,1,3.78-7.19,9,9,0,0,1,5-3.08l.54-.07a9.69,9.69,0,0,1,6.12,1.75,26.09,26.09,0,0,1,5.84,5.45,71.9,71.9,0,0,1,5.55,7.93,89.29,89.29,0,0,1,4.55,8.42c1.57,3.28,3.12,6.86,4.6,10.64s2.84,7.75,4,11.71,2.23,8,3,11.76c1.53,8.06,1.78,14.58.88,19.91-1,5.75-3.15,10.12-6.42,13A9.39,9.39,0,0,1,390.78,406.34Zm-13.93-58.51c1.24,3.69,2.81,7.95,4.66,12.76s3.45,8.86,4.83,12c-1-3.48-2.42-7.68-4.28-12.53S378.43,351.09,376.85,347.83Z" transform="translate(-132.83 -195.09)"/><path class="cls-3" d="M394.85,397.72c-2.39,2.11-4.78,2.51-7.15,1.25s-4.9-4.4-7.64-9.38q-2.1-3.9-4.26-8.88t-4.14-10.2q-2-5.22-3.66-10.2c-1.11-3.31-2-6.25-2.68-8.81-.92-3.48-1.68-6.7-2.24-9.69a50.69,50.69,0,0,1-.93-8.24,23.32,23.32,0,0,1,.72-6.68,12.07,12.07,0,0,1,2.71-5,6,6,0,0,1,3.91-2.19,6.82,6.82,0,0,1,4.35,1.31,21.39,21.39,0,0,1,4.72,4.47,67.47,67.47,0,0,1,5,7.24,84.11,84.11,0,0,1,4.15,7.77c1.49,3.13,2.93,6.49,4.33,10.11s2.67,7.31,3.81,11.1,2,7.4,2.71,10.82c1.25,6.62,1.5,12,.83,16S397.2,395.65,394.85,397.72Zm-16.56-34c3.13,8.24,5.59,14.24,7.59,17.9s3.62,4.91,4.94,3.71,1.49-4.12.57-8.83a122.83,122.83,0,0,0-6.13-19.6c-3.44-8.88-6.53-15.25-9-19.23s-4.33-5.33-5.43-4.17-1,4.45.48,9.75S375.1,355.33,378.29,363.71Z" transform="translate(-132.83 -195.09)"/><path class="cls-2" d="M405.58,389.88c-1-3.47-2.15-7.48-3.55-11.89s-2.95-9-4.65-13.66-3.5-9.45-5.38-14.23c-1.82-4.61-3.71-9.15-5.6-13.51s-3.65-8.19-5.29-11.62-3.1-6.34-4.29-8.55-2.27-4.2-3.42-6.29q1.88-1.72,3.74-3.46c.85-.79,1.68-1.64,2.46-2.5a26.34,26.34,0,0,0,1.88-2.3l.08-.11.09-.1a18.5,18.5,0,0,0,1.57-2.15l1.63-2.64-2.37-4.09c1.33-1.15,2.65-2.31,4-3.48a27.86,27.86,0,0,0,2.43-2.43,20.32,20.32,0,0,0,1.81-2.28l.08-.12.09-.1a21,21,0,0,0,1.58-2.31q1.53-2.62,3-5.28,1.65,3.81,3.27,7.63c1.13,2.7,2.61,6,4.35,9.95s3.72,8.35,5.77,13S413,317,415.19,322s4.25,10.08,6.15,14.71,3.73,9.19,5.37,13.28,3,7.47,4.09,10.11q1.43,3.43,2.82,6.9-1.94,1.68-3.89,3.34l-2.13,1.81a26.3,26.3,0,0,0-2,1.93c-.78.81-1.65,1.8-2.6,2.91l-1.9,2.22c.54,1.31,1.08,2.63,1.61,3.95l-4.24,3.17c-.91.67-1.81,1.4-2.66,2.15s-1.58,1.44-2.21,2.11l-2.44,2.54q-1.83,1.92-3.67,3.81C406.86,394.59,406.23,392.23,405.58,389.88Z" transform="translate(-132.83 -195.09)"/><path class="cls-3" d="M379.56,312.58c.95-.87,1.84-1.77,2.68-2.68a30,30,0,0,0,2.13-2.57,22.07,22.07,0,0,0,1.92-2.58c1.19,1.91,2.64,4.17,4.33,6.81s3.42,5.26,5.17,7.89,3.43,5.09,5,7.4,2.92,4.14,4,5.45c.62.83,1,1.11,1.27.86s.11-1.08-.37-2.49c-.64-1.66-1.62-4.06-3-7.17s-2.84-6.4-4.49-9.88-3.33-6.87-5-10.18-3.13-6-4.31-8.05a30.93,30.93,0,0,0,2.71-2.66,24.21,24.21,0,0,0,2.12-2.63,22.74,22.74,0,0,0,1.9-2.74c1.18,2.82,2.68,6.24,4.47,10.28s3.71,8.42,5.76,13.13,4.14,9.6,6.29,14.69,4.19,10,6.12,14.76,3.7,9.2,5.35,13.36,3,7.61,4.14,10.34c-.67.57-1.37,1.19-2.12,1.84s-1.42,1.31-2.25,2.19-1.75,1.93-2.74,3.12c-1-2-2.18-4.4-3.65-7.15s-3-5.46-4.6-8.13-3.14-5.13-4.63-7.4a54.19,54.19,0,0,0-3.63-5.05c-.81-.92-1.32-1.22-1.52-.91s0,1.24.52,2.75,1.43,3.8,2.63,6.86,2.48,6.31,3.85,9.75,2.68,6.82,4,10.12,2.33,6,3.16,8c-1,.75-1.95,1.54-2.86,2.36s-1.73,1.61-2.45,2.38l-2.4,2.54c-1-3.59-2.21-7.64-3.66-12.13s-3-9.12-4.76-13.87-3.56-9.53-5.47-14.33-3.82-9.36-5.71-13.66S385.75,325,384,321.4,380.82,314.9,379.56,312.58Z" transform="translate(-132.83 -195.09)"/><path class="cls-4" d="M453.75,197.59H141.53a6.2,6.2,0,0,0-6.2,6.2v434.3a6.19,6.19,0,0,0,6.2,6.2H453.75a6.19,6.19,0,0,0,6.2-6.2V203.79A6.2,6.2,0,0,0,453.75,197.59Zm-12.66,424.5H154.19V219.79h286.9Z" transform="translate(-132.83 -195.09)"/><circle class="cls-5" cx="317.45" cy="13.24" r="4.05"/><circle class="cls-5" cx="297.05" cy="13.24" r="4.05"/><circle class="cls-5" cx="276.65" cy="13.24" r="4.05"/><circle class="cls-5" cx="256.24" cy="13.24" r="4.05"/><circle class="cls-5" cx="235.84" cy="13.24" r="4.05"/><circle class="cls-5" cx="215.44" cy="13.24" r="4.05"/><circle class="cls-5" cx="195.04" cy="13.24" r="4.05"/><circle class="cls-5" cx="174.64" cy="13.24" r="4.05"/><circle class="cls-5" cx="154.24" cy="13.24" r="4.05"/><circle class="cls-5" cx="133.84" cy="13.24" r="4.05"/><circle class="cls-5" cx="113.43" cy="13.24" r="4.05"/><circle class="cls-5" cx="93.03" cy="13.24" r="4.05"/><circle class="cls-5" cx="72.63" cy="13.24" r="4.05"/><circle class="cls-5" cx="52.23" cy="13.24" r="4.05"/><circle class="cls-5" cx="31.83" cy="13.24" r="4.05"/><circle class="cls-5" cx="11.43" cy="13.24" r="4.05"/><circle class="cls-5" cx="317.45" cy="437.76" r="4.05"/><circle class="cls-5" cx="297.05" cy="437.76" r="4.05"/><circle class="cls-5" cx="276.65" cy="437.76" r="4.05"/><circle class="cls-5" cx="256.24" cy="437.76" r="4.05"/><circle class="cls-5" cx="235.84" cy="437.76" r="4.05"/><circle class="cls-5" cx="215.44" cy="437.76" r="4.05"/><circle class="cls-5" cx="195.04" cy="437.76" r="4.05"/><circle class="cls-5" cx="174.64" cy="437.76" r="4.05"/><circle class="cls-5" cx="154.24" cy="437.76" r="4.05"/><circle class="cls-5" cx="133.84" cy="437.76" r="4.05"/><circle class="cls-5" cx="113.43" cy="437.76" r="4.05"/><circle class="cls-5" cx="93.03" cy="437.76" r="4.05"/><circle class="cls-5" cx="72.63" cy="437.76" r="4.05"/><circle class="cls-5" cx="52.23" cy="437.76" r="4.05"/><circle class="cls-5" cx="31.83" cy="437.76" r="4.05"/><circle class="cls-5" cx="11.43" cy="437.76" r="4.05"/><circle class="cls-5" cx="11.43" cy="13.24" r="4.05"/><circle class="cls-5" cx="11.43" cy="33.46" r="4.05"/><circle class="cls-5" cx="11.43" cy="53.67" r="4.05"/><circle class="cls-5" cx="11.43" cy="73.89" r="4.05"/><circle class="cls-5" cx="11.43" cy="94.11" r="4.05"/><circle class="cls-5" cx="11.43" cy="114.32" r="4.05"/><circle class="cls-5" cx="11.43" cy="134.54" r="4.05"/><circle class="cls-5" cx="11.43" cy="154.75" r="4.05"/><circle class="cls-5" cx="11.43" cy="174.97" r="4.05"/><circle class="cls-5" cx="11.43" cy="195.18" r="4.05"/><circle class="cls-5" cx="11.43" cy="215.4" r="4.05"/><circle class="cls-5" cx="11.43" cy="235.61" r="4.05"/><circle class="cls-5" cx="11.43" cy="255.83" r="4.05"/><circle class="cls-5" cx="11.43" cy="276.04" r="4.05"/><circle class="cls-5" cx="11.43" cy="296.26" r="4.05"/><circle class="cls-5" cx="11.43" cy="316.47" r="4.05"/><circle class="cls-5" cx="11.43" cy="336.69" r="4.05"/><circle class="cls-5" cx="11.43" cy="356.9" r="4.05"/><circle class="cls-5" cx="11.43" cy="377.12" r="4.05"/><circle class="cls-5" cx="11.43" cy="397.33" r="4.05"/><circle class="cls-5" cx="11.43" cy="417.55" r="4.05"/><circle class="cls-5" cx="11.43" cy="437.76" r="4.05"/><circle class="cls-5" cx="317.45" cy="13.24" r="4.05"/><circle class="cls-5" cx="317.45" cy="33.46" r="4.05"/><circle class="cls-5" cx="317.45" cy="53.67" r="4.05"/><circle class="cls-5" cx="317.45" cy="73.89" r="4.05"/><circle class="cls-5" cx="317.45" cy="94.11" r="4.05"/><circle class="cls-5" cx="317.45" cy="114.32" r="4.05"/><circle class="cls-5" cx="317.45" cy="134.54" r="4.05"/><circle class="cls-5" cx="317.45" cy="154.75" r="4.05"/><circle class="cls-5" cx="317.45" cy="174.97" r="4.05"/><circle class="cls-5" cx="317.45" cy="195.18" r="4.05"/><circle class="cls-5" cx="317.45" cy="215.4" r="4.05"/><circle class="cls-5" cx="317.45" cy="235.61" r="4.05"/><circle class="cls-5" cx="317.45" cy="255.83" r="4.05"/><circle class="cls-5" cx="317.45" cy="276.04" r="4.05"/><circle class="cls-5" cx="317.45" cy="296.26" r="4.05"/><circle class="cls-5" cx="317.45" cy="316.47" r="4.05"/><circle class="cls-5" cx="317.45" cy="336.69" r="4.05"/><circle class="cls-5" cx="317.45" cy="356.9" r="4.05"/><circle class="cls-5" cx="317.45" cy="377.12" r="4.05"/><circle class="cls-5" cx="317.45" cy="397.33" r="4.05"/><circle class="cls-5" cx="317.45" cy="417.55" r="4.05"/><circle class="cls-5" cx="317.45" cy="437.76" r="4.05"/></svg>