<svg xmlns="http://www.w3.org/2000/svg" viewBox="0 0 503.18 497.4"><defs><style>.cls-1{fill:#354a52;}.cls-2{fill:#243539;}.cls-3{fill:#56787f;}.cls-4{fill:#34484c;}</style></defs><g id="Capa_2" data-name="Capa 2"><g id="Capa_1-2" data-name="Capa 1"><path class="cls-1" d="M114.37,0a114.37,114.37,0,1,0,62.68,210H319.59a68.42,68.42,0,1,0,0-136.84H221A114.35,114.35,0,0,0,114.37,0"/><path class="cls-2" d="M128.44,40.31a94.24,94.24,0,1,0,51.62,173H297.51a56.4,56.4,0,1,0,0-112.8H216.26a94.13,94.13,0,0,0-87.82-60.26"/><path class="cls-3" d="M154.21,123.78c0-18.8-14.86-34-33.17-34s-33.28,15.24-33.28,34,14.9,34,33.28,34,33.17-15.23,33.17-34"/><path class="cls-2" d="M233.66,497.4H203.27V371.2h30.39Zm-9.4-167.62h33.52L308.05,497.4h-33.5Z"/><path class="cls-2" d="M218.46,329.78H184.94L134.66,497.4h33.52Z"/><path class="cls-2" d="M296.45,428.75h-156v-78h156Zm50.76-173.09,156-50.28V367.14l-156-33.52Z"/><path class="cls-4" d="M396.58,389.78H27.86V205.38H396.58Z"/><path class="cls-3" d="M243.89,314.75H77.06V231.31H243.89Zm136,56.46H367.4V315.86h12.46Zm-28.54,0H338.86V315.86h12.46Zm-28.78,0H310.06V315.86h12.48Z"/></g></g></svg>